<svg width="40" height="50" viewBox="0 0 40 50" xmlns="http://www.w3.org/2000/svg">
  <path d="M20 1C9.5 1 1 9.5 1 20C1 32 20 49 20 49C20 49 39 32 39 20C39 9.5 30.5 1 20 1Z" fill="#6d28d9" stroke="white" stroke-width="1.5"/>
  <circle cx="20" cy="20" r="14" fill="white" fill-opacity="0.95"/>
  <g transform="translate(10, 10) scale(0.833)" stroke="#6d28d9" stroke-width="2.5" stroke-linecap="round" stroke-linejoin="round" fill="none">
    <path d="M8 22h8" />
  <path d="M7 10h10" />
  <path d="M12 15v7" />
  <path d="M12 15a5 5 0 0 0 5-5c0-2-.5-4-2-8H9c-1.5 4-2 6-2 8a5 5 0 0 0 5 5Z" />
  </g>
</svg>