<svg width="40" height="50" viewBox="0 0 40 50" xmlns="http://www.w3.org/2000/svg">
  <path d="M20 1C9.5 1 1 9.5 1 20C1 32 20 49 20 49C20 49 39 32 39 20C39 9.5 30.5 1 20 1Z" fill="#a16207" stroke="white" stroke-width="1.5"/>
  <circle cx="20" cy="20" r="14" fill="white" fill-opacity="0.95"/>
  <g transform="translate(10, 10) scale(0.833)" stroke="#a16207" stroke-width="2.5" stroke-linecap="round" stroke-linejoin="round" fill="none">
    <path d="M12 10V2" />
  <path d="m4.93 10.93 1.41 1.41" />
  <path d="M2 18h2" />
  <path d="M20 18h2" />
  <path d="m19.07 10.93-1.41 1.41" />
  <path d="M22 22H2" />
  <path d="m16 6-4 4-4-4" />
  <path d="M16 18a4 4 0 0 0-8 0" />
  </g>
</svg>