<svg width="40" height="50" viewBox="0 0 40 50" xmlns="http://www.w3.org/2000/svg">
  <path d="M20 1C9.5 1 1 9.5 1 20C1 32 20 49 20 49C20 49 39 32 39 20C39 9.5 30.5 1 20 1Z" fill="#e2e8f0" stroke="white" stroke-width="1.5"/>
  <circle cx="20" cy="20" r="14" fill="white" fill-opacity="0.95"/>
  <g transform="translate(10, 10) scale(0.833)" stroke="#e2e8f0" stroke-width="2.5" stroke-linecap="round" stroke-linejoin="round" fill="none">
    <path d="M20.985 12.486a9 9 0 1 1-9.473-9.472c.405-.022.617.46.402.803a6 6 0 0 0 8.268 8.268c.344-.215.825-.004.803.401" />
  </g>
</svg>