<svg width="40" height="50" viewBox="0 0 40 50" xmlns="http://www.w3.org/2000/svg">
  <path d="M20 1C9.5 1 1 9.5 1 20C1 32 20 49 20 49C20 49 39 32 39 20C39 9.5 30.5 1 20 1Z" fill="#a16207" stroke="white" stroke-width="1.5"/>
  <circle cx="20" cy="20" r="14" fill="white" fill-opacity="0.95"/>
  <g transform="translate(10, 10) scale(0.833)" stroke="#a16207" stroke-width="2.5" stroke-linecap="round" stroke-linejoin="round" fill="none">
    <path d="M10 9h4" />
  <path d="M12 7v5" />
  <path d="M14 21v-3a2 2 0 0 0-4 0v3" />
  <path d="m18 9 3.52 2.147a1 1 0 0 1 .48.854V19a2 2 0 0 1-2 2H4a2 2 0 0 1-2-2v-6.999a1 1 0 0 1 .48-.854L6 9" />
  <path d="M6 21V7a1 1 0 0 1 .376-.782l5-3.999a1 1 0 0 1 1.249.001l5 4A1 1 0 0 1 18 7v14" />
  </g>
</svg>