<svg width="40" height="50" viewBox="0 0 40 50" xmlns="http://www.w3.org/2000/svg">
  <path d="M20 1C9.5 1 1 9.5 1 20C1 32 20 49 20 49C20 49 39 32 39 20C39 9.5 30.5 1 20 1Z" fill="#365314" stroke="white" stroke-width="1.5"/>
  <circle cx="20" cy="20" r="14" fill="white" fill-opacity="0.95"/>
  <g transform="translate(10, 10) scale(0.833)" stroke="#365314" stroke-width="2.5" stroke-linecap="round" stroke-linejoin="round" fill="none">
    <path d="M10 11h.01" />
  <path d="M14 6h.01" />
  <path d="M18 6h.01" />
  <path d="M6.5 13.1h.01" />
  <path d="M22 5c0 9-4 12-6 12s-6-3-6-12c0-2 2-3 6-3s6 1 6 3" />
  <path d="M17.4 9.9c-.8.8-2 .8-2.8 0" />
  <path d="M10.1 7.1C9 7.2 7.7 7.7 6 8.6c-3.5 2-4.7 3.9-3.7 5.6 4.5 7.8 9.5 8.4 11.2 7.4.9-.5 1.9-2.1 1.9-4.7" />
  <path d="M9.1 16.5c.3-1.1 1.4-1.7 2.4-1.4" />
  </g>
</svg>