<svg width="40" height="50" viewBox="0 0 40 50" xmlns="http://www.w3.org/2000/svg">
  <path d="M20 1C9.5 1 1 9.5 1 20C1 32 20 49 20 49C20 49 39 32 39 20C39 9.5 30.5 1 20 1Z" fill="#b91c1c" stroke="white" stroke-width="1.5"/>
  <circle cx="20" cy="20" r="14" fill="white" fill-opacity="0.95"/>
  <g transform="translate(10, 10) scale(0.833)" stroke="#b91c1c" stroke-width="2.5" stroke-linecap="round" stroke-linejoin="round" fill="none">
    <path d="M10 5V3" />
  <path d="M14 5V3" />
  <path d="M15 21v-3a3 3 0 0 0-6 0v3" />
  <path d="M18 3v8" />
  <path d="M18 5H6" />
  <path d="M22 11H2" />
  <path d="M22 9v10a2 2 0 0 1-2 2H4a2 2 0 0 1-2-2V9" />
  <path d="M6 3v8" />
  </g>
</svg>