<svg width="40" height="50" viewBox="0 0 40 50" xmlns="http://www.w3.org/2000/svg">
  <path d="M20 1C9.5 1 1 9.5 1 20C1 32 20 49 20 49C20 49 39 32 39 20C39 9.5 30.5 1 20 1Z" fill="#9d174d" stroke="white" stroke-width="1.5"/>
  <circle cx="20" cy="20" r="14" fill="white" fill-opacity="0.95"/>
  <g transform="translate(10, 10) scale(0.833)" stroke="#9d174d" stroke-width="2.5" stroke-linecap="round" stroke-linejoin="round" fill="none">
    <path d="M12 5a3 3 0 1 1 3 3m-3-3a3 3 0 1 0-3 3m3-3v1M9 8a3 3 0 1 0 3 3M9 8h1m5 0a3 3 0 1 1-3 3m3-3h-1m-2 3v-1" />
  <circle cx="12" cy="8" r="2" />
  <path d="M12 10v12" />
  <path d="M12 22c4.2 0 7-1.667 7-5-4.2 0-7 1.667-7 5Z" />
  <path d="M12 22c-4.2 0-7-1.667-7-5 4.2 0 7 1.667 7 5Z" />
  </g>
</svg>