<svg width="40" height="50" viewBox="0 0 40 50" xmlns="http://www.w3.org/2000/svg">
  <path d="M20 1C9.5 1 1 9.5 1 20C1 32 20 49 20 49C20 49 39 32 39 20C39 9.5 30.5 1 20 1Z" fill="#1d4ed8" stroke="white" stroke-width="1.5"/>
  <circle cx="20" cy="20" r="14" fill="white" fill-opacity="0.95"/>
  <g transform="translate(10, 10) scale(0.833)" stroke="#1d4ed8" stroke-width="2.5" stroke-linecap="round" stroke-linejoin="round" fill="none">
    <path d="M2 20v-8a2 2 0 0 1 2-2h16a2 2 0 0 1 2 2v8" />
  <path d="M4 10V6a2 2 0 0 1 2-2h12a2 2 0 0 1 2 2v4" />
  <path d="M12 4v6" />
  <path d="M2 18h20" />
  </g>
</svg>