<svg width="40" height="50" viewBox="0 0 40 50" xmlns="http://www.w3.org/2000/svg">
  <path d="M20 1C9.5 1 1 9.5 1 20C1 32 20 49 20 49C20 49 39 32 39 20C39 9.5 30.5 1 20 1Z" fill="#9d174d" stroke="white" stroke-width="1.5"/>
  <circle cx="20" cy="20" r="14" fill="white" fill-opacity="0.95"/>
  <g transform="translate(10, 10) scale(0.833)" stroke="#9d174d" stroke-width="2.5" stroke-linecap="round" stroke-linejoin="round" fill="none">
    <path d="M11.017 2.814a1 1 0 0 1 1.966 0l1.051 5.558a2 2 0 0 0 1.594 1.594l5.558 1.051a1 1 0 0 1 0 1.966l-5.558 1.051a2 2 0 0 0-1.594 1.594l-1.051 5.558a1 1 0 0 1-1.966 0l-1.051-5.558a2 2 0 0 0-1.594-1.594l-5.558-1.051a1 1 0 0 1 0-1.966l5.558-1.051a2 2 0 0 0 1.594-1.594z" />
  <path d="M20 2v4" />
  <path d="M22 4h-4" />
  <circle cx="4" cy="20" r="2" />
  </g>
</svg>