<svg width="40" height="50" viewBox="0 0 40 50" xmlns="http://www.w3.org/2000/svg">
  <path d="M20 1C9.5 1 1 9.5 1 20C1 32 20 49 20 49C20 49 39 32 39 20C39 9.5 30.5 1 20 1Z" fill="#b91c1c" stroke="white" stroke-width="1.5"/>
  <circle cx="20" cy="20" r="14" fill="white" fill-opacity="0.95"/>
  <g transform="translate(10, 10) scale(0.833)" stroke="#b91c1c" stroke-width="2.5" stroke-linecap="round" stroke-linejoin="round" fill="none">
    <path d="M16.247 7.761a6 6 0 0 1 0 8.478" />
  <path d="M19.075 4.933a10 10 0 0 1 0 14.134" />
  <path d="M4.925 19.067a10 10 0 0 1 0-14.134" />
  <path d="M7.753 16.239a6 6 0 0 1 0-8.478" />
  <circle cx="12" cy="12" r="2" />
  </g>
</svg>