<svg width="40" height="50" viewBox="0 0 40 50" xmlns="http://www.w3.org/2000/svg">
  <path d="M20 1C9.5 1 1 9.5 1 20C1 32 20 49 20 49C20 49 39 32 39 20C39 9.5 30.5 1 20 1Z" fill="#6d28d9" stroke="white" stroke-width="1.5"/>
  <circle cx="20" cy="20" r="14" fill="white" fill-opacity="0.95"/>
  <g transform="translate(10, 10) scale(0.833)" stroke="#6d28d9" stroke-width="2.5" stroke-linecap="round" stroke-linejoin="round" fill="none">
    <path d="m10.065 12.493-6.18 1.318a.934.934 0 0 1-1.108-.702l-.537-2.15a1.07 1.07 0 0 1 .691-1.265l13.504-4.44" />
  <path d="m13.56 11.747 4.332-.924" />
  <path d="m16 21-3.105-6.21" />
  <path d="M16.485 5.94a2 2 0 0 1 1.455-2.425l1.09-.272a1 1 0 0 1 1.212.727l1.515 6.06a1 1 0 0 1-.727 1.213l-1.09.272a2 2 0 0 1-2.425-1.455z" />
  <path d="m6.158 8.633 1.114 4.456" />
  <path d="m8 21 3.105-6.21" />
  <circle cx="12" cy="13" r="2" />
  </g>
</svg>