<svg width="40" height="50" viewBox="0 0 40 50" xmlns="http://www.w3.org/2000/svg">
  <path d="M20 1C9.5 1 1 9.5 1 20C1 32 20 49 20 49C20 49 39 32 39 20C39 9.5 30.5 1 20 1Z" fill="#365314" stroke="white" stroke-width="1.5"/>
  <circle cx="20" cy="20" r="14" fill="white" fill-opacity="0.95"/>
  <g transform="translate(10, 10) scale(0.833)" stroke="#365314" stroke-width="2.5" stroke-linecap="round" stroke-linejoin="round" fill="none">
    <path d="M16 7h.01" />
  <path d="M3.4 18H12a8 8 0 0 0 8-8V7a4 4 0 0 0-7.28-2.3L2 20" />
  <path d="m20 7 2 .5-2 .5" />
  <path d="M10 18v3" />
  <path d="M14 17.75V21" />
  <path d="M7 18a6 6 0 0 0 3.84-10.61" />
  </g>
</svg>